<svg width="73.711" height="72.037" xmlns="http://www.w3.org/2000/svg" xml:space="preserve" version="1.1">

 <g>
  <title>Layer 1</title>
  <g id="Yosemite_x5F_National_x5F_Park">
   <path id="svg_1" clip-rule="evenodd" fill-rule="evenodd" d="m61.409,9.59c5.75,5.171 9.765,11.522 11.632,20.254c1.001,4.677 0.839,9.958 -0.204,14.285c-1.027,4.261 -2.764,7.931 -4.745,11.173c-1.91,3.125 -4.578,6.01 -7.55,8.418c-2.956,2.395 -6.404,4.491 -10.051,5.868c-3.945,1.489 -8.312,2.449 -13.469,2.449c-5.245,0 -9.205,-1.11 -13.265,-2.653c-3.779,-1.437 -7.274,-3.368 -10.153,-5.816c-2.849,-2.422 -5.446,-5.092 -7.602,-8.316c-2.014,-3.012 -4.1,-6.78 -4.949,-10.969c-0.903,-4.463 -1.54,-9.446 -0.56,-14.438c1.754,-8.938 5.769,-15.312 11.479,-20.408c5.815,-5.189 12.321,-8.45 22.448,-9.387c1.33,-0.123 3.158,0.01 4.592,0.102c9.863,0.631 16.7,4.618 22.397,9.438zm5.816,25.51c-0.297,-3.663 -0.976,-6.921 -2.143,-9.642c-3.889,-9.069 -10.791,-15.638 -21.326,-18.011c-2.167,-0.488 -4.515,-0.974 -6.938,-0.969c-5.146,0.009 -9.687,1.258 -13.418,2.959c-3.787,1.727 -6.947,4.051 -9.439,6.99c-4.277,4.882 -8.176,11.53 -7.499,21.02c0.088,1.242 -0.042,2.589 0.561,3.571c0.683,-0.529 0.99,-1.423 1.377,-2.193c0.392,-0.78 0.845,-1.548 1.225,-2.347c0.38,-0.801 0.704,-1.669 1.123,-2.449c0.416,-0.775 0.747,-1.652 1.429,-2.194c1.603,0.013 2.896,0.605 4.489,0.459c0.601,-0.548 0.836,-1.368 1.173,-2.092c2.103,-4.514 4.11,-9.176 6.123,-13.673c0.325,-0.726 0.566,-1.579 1.224,-2.092c1.81,0.104 3.584,0.537 5.357,0.816c3.528,0.555 7.227,1.053 10.561,1.786c5.074,1.115 8.553,3.797 12.295,6.224c2.514,1.63 4.775,3.596 6.684,5.714c2.285,2.509 3.892,5.772 5.816,8.571c0.268,0.389 0.493,0.962 1.021,1.072c0.472,-1.116 0.399,-2.366 0.305,-3.52zm-11.173,20.101c-1.746,-2.305 -3.047,-5.107 -3.877,-8.214c-1.12,-4.191 -1.943,-8.642 -3.572,-12.551c-0.763,-1.832 -1.845,-3.485 -3.061,-5c-1.752,-2.183 -3.626,-4.641 -6.174,-5.919c-2.172,-1.089 -5.438,-1.352 -8.265,-1.786c-0.582,-0.089 -1.333,-0.311 -1.786,-0.255c-0.744,0.092 -1.09,1.442 -1.429,2.143c-2.195,4.548 -4.237,9.163 -6.275,13.724c-0.292,0.655 -0.823,1.946 -1.275,2.092c-0.677,0.217 -1.556,-0.19 -2.296,-0.307c-0.586,-0.092 -1.936,-0.377 -2.449,-0.204c-0.396,0.134 -0.582,0.758 -0.816,1.225c-1.191,2.369 -2.339,4.483 -3.469,6.786c-0.329,0.67 -1.314,2.09 -1.275,2.857c0.016,0.312 0.469,0.986 0.765,1.429c2.107,3.146 4.758,6.043 7.601,8.112c3.495,2.542 7.449,4.422 12.347,5.612c2.443,0.594 5.414,0.892 8.163,0.714c6.805,-0.438 12.229,-2.919 16.479,-5.969c0.84,-0.603 1.746,-1.213 2.347,-2.143c-0.469,-0.84 -1.103,-1.582 -1.683,-2.346zm-0.918,-22.244c0.504,2.15 1.229,4.392 1.786,6.684c0.265,1.094 0.54,2.216 0.867,3.316c0.336,1.129 0.517,2.313 0.867,3.367c0.54,1.625 1.461,3.275 2.398,4.592c0.295,0.415 0.783,1.169 1.225,1.122c0.462,-0.049 1.251,-1.566 1.429,-1.888c0.307,-0.554 1.051,-1.622 1.02,-2.295c-0.024,-0.527 -0.673,-1.38 -1.02,-2.041c-1.118,-2.129 -2.21,-3.698 -3.368,-5.816c-0.715,-1.309 -1.438,-2.6 -2.245,-3.878c-0.654,-1.038 -1.867,-2.847 -2.959,-3.316c0.02,0.088 -0.076,0.131 0,0.153z"/>
  </g>
  <g id="Layer_1"/>
 </g>
</svg>